<svg xmlns="http://www.w3.org/2000/svg" viewBox="0 0 26 26" id="skype-logo"><path d="M24.799 15.079c.125-.697.201-1.411.201-2.143C25 6.273 19.599.871 12.936.871c-.755 0-1.492.078-2.209.211A6.954 6.954 0 0 0 7 0a7 7 0 0 0-7 7c0 1.372.4 2.647 1.082 3.727a12.084 12.084 0 0 0-.211 2.209C.871 19.599 6.272 25 12.936 25c.733 0 1.447-.076 2.143-.201a7 7 0 0 0 9.72-9.72zM13.053 20.77c-4.362 0-6.313-2.144-6.313-3.751 0-.824.608-1.402 1.447-1.402 1.867 0 1.383 2.68 4.866 2.68 1.782 0 2.767-.968 2.767-1.959 0-.596-.294-1.256-1.468-1.545l-3.879-.969c-3.124-.783-3.691-2.472-3.691-4.06 0-3.297 3.104-4.534 6.019-4.534 2.685 0 5.85 1.484 5.85 3.462 0 .847-.734 1.34-1.572 1.34-1.593 0-1.3-2.205-4.509-2.205-1.592 0-2.474.721-2.474 1.753 0 1.03 1.258 1.359 2.349 1.608l2.872.637c3.145.701 3.943 2.537 3.943 4.267 0 2.678-2.056 4.678-6.207 4.678z"></path></svg>